<?xml version="1.0" standalone="no"?>
<!DOCTYPE svg PUBLIC "-//W3C//DTD SVG 20010904//EN"
 "http://www.w3.org/TR/2001/REC-SVG-20010904/DTD/svg10.dtd">
<svg version="1.0" xmlns="http://www.w3.org/2000/svg"
 width="450.000000pt" height="450.000000pt" viewBox="0 0 450.000000 450.000000"
 preserveAspectRatio="xMidYMid meet">
<metadata>
Created by potrace 1.16, written by Peter Selinger 2001-2019
</metadata>
<g transform="translate(0.000000,450.000000) scale(0.100000,-0.100000)"
fill="#000000" stroke="none">
<path d="M0 2250 l0 -2250 2250 0 2250 0 0 2250 0 2250 -2250 0 -2250 0 0
-2250z m2470 331 l0 -669 198 -47 c229 -54 259 -65 268 -99 3 -14 4 -89 2
-168 -3 -137 -4 -145 -32 -196 -34 -60 -84 -104 -148 -129 -37 -15 -92 -18
-401 -21 l-358 -3 2 73 c1 40 4 81 7 91 4 16 28 17 328 17 348 0 374 3 408 51
12 17 16 46 16 105 l0 82 -140 34 c-76 20 -142 33 -145 30 -3 -3 -5 -25 -5
-49 0 -30 -6 -49 -21 -64 -19 -19 -29 -20 -337 -17 -299 3 -320 4 -363 24 -67
31 -124 87 -156 152 l-28 57 0 315 0 315 29 57 c35 69 74 108 146 145 53 27
62 28 229 31 183 4 231 -3 284 -40 l27 -19 0 290 c0 159 3 296 6 305 5 13 23
16 95 16 l89 0 0 -669z m422 -293 c2 -35 1 -74 -2 -88 l-6 -25 -157 -3 -157
-3 0 91 0 90 159 0 159 0 4 -62z"/>
<path d="M1845 2513 c-32 -9 -65 -34 -81 -64 -11 -22 -14 -82 -14 -301 0 -385
-13 -370 312 -366 l213 3 -120 30 c-84 21 -127 37 -144 53 -23 23 -23 27 -19
150 6 139 16 177 70 237 26 30 93 75 113 75 3 0 5 -76 5 -169 0 -185 0 -184
63 -196 l37 -7 0 237 c0 330 3 326 -257 324 -87 -1 -167 -4 -178 -6z"/>
</g>
</svg>
